<svg xmlns="http://www.w3.org/2000/svg" version="1.1" xmlns:xlink="http://www.w3.org/1999/xlink" xmlns:svgjs="http://svgjs.dev/svgjs" viewBox="0 0 800 800" opacity="0.14" width="800" height="800"><g stroke-width="0.75" stroke="#4a7075ff" fill="none"><rect width="47.05882352941177" height="47.05882352941177" x="0" y="0"></rect><rect width="47.05882352941177" height="47.05882352941177" x="47.05882352941177" y="0"></rect><rect width="47.05882352941177" height="47.05882352941177" x="94.11764705882354" y="0"></rect><rect width="47.05882352941177" height="47.05882352941177" x="141.1764705882353" y="0"></rect><rect width="47.05882352941177" height="47.05882352941177" x="188.23529411764707" y="0"></rect><rect width="47.05882352941177" height="47.05882352941177" x="235.29411764705884" y="0"></rect><rect width="47.05882352941177" height="47.05882352941177" x="282.3529411764706" y="0"></rect><rect width="47.05882352941177" height="47.05882352941177" x="329.4117647058824" y="0"></rect><rect width="47.05882352941177" height="47.05882352941177" x="376.47058823529414" y="0"></rect><rect width="47.05882352941177" height="47.05882352941177" x="423.5294117647059" y="0"></rect><rect width="47.05882352941177" height="47.05882352941177" x="470.5882352941177" y="0"></rect><rect width="47.05882352941177" height="47.05882352941177" x="517.6470588235295" y="0"></rect><rect width="47.05882352941177" height="47.05882352941177" x="564.7058823529412" y="0"></rect><rect width="47.05882352941177" height="47.05882352941177" x="611.7647058823529" y="0"></rect><rect width="47.05882352941177" height="47.05882352941177" x="658.8235294117646" y="0"></rect><rect width="47.05882352941177" height="47.05882352941177" x="705.8823529411764" y="0"></rect><rect width="47.05882352941177" height="47.05882352941177" x="752.9411764705881" y="0"></rect><rect width="47.05882352941177" height="47.05882352941177" x="799.9999999999998" y="0"></rect><rect width="47.05882352941177" height="47.05882352941177" x="0" y="47.05882352941177"></rect><rect width="47.05882352941177" height="47.05882352941177" x="47.05882352941177" y="47.05882352941177"></rect><rect width="47.05882352941177" height="47.05882352941177" x="94.11764705882354" y="47.05882352941177"></rect><rect width="47.05882352941177" height="47.05882352941177" x="141.1764705882353" y="47.05882352941177"></rect><rect width="47.05882352941177" height="47.05882352941177" x="188.23529411764707" y="47.05882352941177"></rect><rect width="47.05882352941177" height="47.05882352941177" x="235.29411764705884" y="47.05882352941177"></rect><rect width="47.05882352941177" height="47.05882352941177" x="282.3529411764706" y="47.05882352941177"></rect><rect width="47.05882352941177" height="47.05882352941177" x="329.4117647058824" y="47.05882352941177"></rect><rect width="47.05882352941177" height="47.05882352941177" x="376.47058823529414" y="47.05882352941177"></rect><rect width="47.05882352941177" height="47.05882352941177" x="423.5294117647059" y="47.05882352941177"></rect><rect width="47.05882352941177" height="47.05882352941177" x="470.5882352941177" y="47.05882352941177"></rect><rect width="47.05882352941177" height="47.05882352941177" x="517.6470588235295" y="47.05882352941177"></rect><rect width="47.05882352941177" height="47.05882352941177" x="564.7058823529412" y="47.05882352941177"></rect><rect width="47.05882352941177" height="47.05882352941177" x="611.7647058823529" y="47.05882352941177"></rect><rect width="47.05882352941177" height="47.05882352941177" x="658.8235294117646" y="47.05882352941177"></rect><rect width="47.05882352941177" height="47.05882352941177" x="705.8823529411764" y="47.05882352941177"></rect><rect width="47.05882352941177" height="47.05882352941177" x="752.9411764705881" y="47.05882352941177"></rect><rect width="47.05882352941177" height="47.05882352941177" x="799.9999999999998" y="47.05882352941177"></rect><rect width="47.05882352941177" height="47.05882352941177" x="0" y="94.11764705882354"></rect><rect width="47.05882352941177" height="47.05882352941177" x="47.05882352941177" y="94.11764705882354"></rect><rect width="47.05882352941177" height="47.05882352941177" x="94.11764705882354" y="94.11764705882354"></rect><rect width="47.05882352941177" height="47.05882352941177" x="141.1764705882353" y="94.11764705882354"></rect><rect width="47.05882352941177" height="47.05882352941177" x="188.23529411764707" y="94.11764705882354"></rect><rect width="47.05882352941177" height="47.05882352941177" x="235.29411764705884" y="94.11764705882354"></rect><rect width="47.05882352941177" height="47.05882352941177" x="282.3529411764706" y="94.11764705882354"></rect><rect width="47.05882352941177" height="47.05882352941177" x="329.4117647058824" y="94.11764705882354"></rect><rect width="47.05882352941177" height="47.05882352941177" x="376.47058823529414" y="94.11764705882354"></rect><rect width="47.05882352941177" height="47.05882352941177" x="423.5294117647059" y="94.11764705882354"></rect><rect width="47.05882352941177" height="47.05882352941177" x="470.5882352941177" y="94.11764705882354"></rect><rect width="47.05882352941177" height="47.05882352941177" x="517.6470588235295" y="94.11764705882354"></rect><rect width="47.05882352941177" height="47.05882352941177" x="564.7058823529412" y="94.11764705882354"></rect><rect width="47.05882352941177" height="47.05882352941177" x="611.7647058823529" y="94.11764705882354"></rect><rect width="47.05882352941177" height="47.05882352941177" x="658.8235294117646" y="94.11764705882354"></rect><rect width="47.05882352941177" height="47.05882352941177" x="705.8823529411764" y="94.11764705882354"></rect><rect width="47.05882352941177" height="47.05882352941177" x="752.9411764705881" y="94.11764705882354"></rect><rect width="47.05882352941177" height="47.05882352941177" x="799.9999999999998" y="94.11764705882354"></rect><rect width="47.05882352941177" height="47.05882352941177" x="0" y="141.1764705882353"></rect><rect width="47.05882352941177" height="47.05882352941177" x="47.05882352941177" y="141.1764705882353"></rect><rect width="47.05882352941177" height="47.05882352941177" x="94.11764705882354" y="141.1764705882353"></rect><rect width="47.05882352941177" height="47.05882352941177" x="141.1764705882353" y="141.1764705882353"></rect><rect width="47.05882352941177" height="47.05882352941177" x="188.23529411764707" y="141.1764705882353"></rect><rect width="47.05882352941177" height="47.05882352941177" x="235.29411764705884" y="141.1764705882353"></rect><rect width="47.05882352941177" height="47.05882352941177" x="282.3529411764706" y="141.1764705882353"></rect><rect width="47.05882352941177" height="47.05882352941177" x="329.4117647058824" y="141.1764705882353"></rect><rect width="47.05882352941177" height="47.05882352941177" x="376.47058823529414" y="141.1764705882353"></rect><rect width="47.05882352941177" height="47.05882352941177" x="423.5294117647059" y="141.1764705882353"></rect><rect width="47.05882352941177" height="47.05882352941177" x="470.5882352941177" y="141.1764705882353"></rect><rect width="47.05882352941177" height="47.05882352941177" x="517.6470588235295" y="141.1764705882353"></rect><rect width="47.05882352941177" height="47.05882352941177" x="564.7058823529412" y="141.1764705882353"></rect><rect width="47.05882352941177" height="47.05882352941177" x="611.7647058823529" y="141.1764705882353"></rect><rect width="47.05882352941177" height="47.05882352941177" x="658.8235294117646" y="141.1764705882353"></rect><rect width="47.05882352941177" height="47.05882352941177" x="705.8823529411764" y="141.1764705882353"></rect><rect width="47.05882352941177" height="47.05882352941177" x="752.9411764705881" y="141.1764705882353"></rect><rect width="47.05882352941177" height="47.05882352941177" x="799.9999999999998" y="141.1764705882353"></rect><rect width="47.05882352941177" height="47.05882352941177" x="0" y="188.23529411764707"></rect><rect width="47.05882352941177" height="47.05882352941177" x="47.05882352941177" y="188.23529411764707"></rect><rect width="47.05882352941177" height="47.05882352941177" x="94.11764705882354" y="188.23529411764707"></rect><rect width="47.05882352941177" height="47.05882352941177" x="141.1764705882353" y="188.23529411764707"></rect><rect width="47.05882352941177" height="47.05882352941177" x="188.23529411764707" y="188.23529411764707"></rect><rect width="47.05882352941177" height="47.05882352941177" x="235.29411764705884" y="188.23529411764707"></rect><rect width="47.05882352941177" height="47.05882352941177" x="282.3529411764706" y="188.23529411764707"></rect><rect width="47.05882352941177" height="47.05882352941177" x="329.4117647058824" y="188.23529411764707"></rect><rect width="47.05882352941177" height="47.05882352941177" x="376.47058823529414" y="188.23529411764707"></rect><rect width="47.05882352941177" height="47.05882352941177" x="423.5294117647059" y="188.23529411764707"></rect><rect width="47.05882352941177" height="47.05882352941177" x="470.5882352941177" y="188.23529411764707"></rect><rect width="47.05882352941177" height="47.05882352941177" x="517.6470588235295" y="188.23529411764707"></rect><rect width="47.05882352941177" height="47.05882352941177" x="564.7058823529412" y="188.23529411764707"></rect><rect width="47.05882352941177" height="47.05882352941177" x="611.7647058823529" y="188.23529411764707"></rect><rect width="47.05882352941177" height="47.05882352941177" x="658.8235294117646" y="188.23529411764707"></rect><rect width="47.05882352941177" height="47.05882352941177" x="705.8823529411764" y="188.23529411764707"></rect><rect width="47.05882352941177" height="47.05882352941177" x="752.9411764705881" y="188.23529411764707"></rect><rect width="47.05882352941177" height="47.05882352941177" x="799.9999999999998" y="188.23529411764707"></rect><rect width="47.05882352941177" height="47.05882352941177" x="0" y="235.29411764705884"></rect><rect width="47.05882352941177" height="47.05882352941177" x="47.05882352941177" y="235.29411764705884"></rect><rect width="47.05882352941177" height="47.05882352941177" x="94.11764705882354" y="235.29411764705884"></rect><rect width="47.05882352941177" height="47.05882352941177" x="141.1764705882353" y="235.29411764705884"></rect><rect width="47.05882352941177" height="47.05882352941177" x="188.23529411764707" y="235.29411764705884"></rect><rect width="47.05882352941177" height="47.05882352941177" x="235.29411764705884" y="235.29411764705884"></rect><rect width="47.05882352941177" height="47.05882352941177" x="282.3529411764706" y="235.29411764705884"></rect><rect width="47.05882352941177" height="47.05882352941177" x="329.4117647058824" y="235.29411764705884"></rect><rect width="47.05882352941177" height="47.05882352941177" x="376.47058823529414" y="235.29411764705884"></rect><rect width="47.05882352941177" height="47.05882352941177" x="423.5294117647059" y="235.29411764705884"></rect><rect width="47.05882352941177" height="47.05882352941177" x="470.5882352941177" y="235.29411764705884"></rect><rect width="47.05882352941177" height="47.05882352941177" x="517.6470588235295" y="235.29411764705884"></rect><rect width="47.05882352941177" height="47.05882352941177" x="564.7058823529412" y="235.29411764705884"></rect><rect width="47.05882352941177" height="47.05882352941177" x="611.7647058823529" y="235.29411764705884"></rect><rect width="47.05882352941177" height="47.05882352941177" x="658.8235294117646" y="235.29411764705884"></rect><rect width="47.05882352941177" height="47.05882352941177" x="705.8823529411764" y="235.29411764705884"></rect><rect width="47.05882352941177" height="47.05882352941177" x="752.9411764705881" y="235.29411764705884"></rect><rect width="47.05882352941177" height="47.05882352941177" x="799.9999999999998" y="235.29411764705884"></rect><rect width="47.05882352941177" height="47.05882352941177" x="0" y="282.3529411764706"></rect><rect width="47.05882352941177" height="47.05882352941177" x="47.05882352941177" y="282.3529411764706"></rect><rect width="47.05882352941177" height="47.05882352941177" x="94.11764705882354" y="282.3529411764706"></rect><rect width="47.05882352941177" height="47.05882352941177" x="141.1764705882353" y="282.3529411764706"></rect><rect width="47.05882352941177" height="47.05882352941177" x="188.23529411764707" y="282.3529411764706"></rect><rect width="47.05882352941177" height="47.05882352941177" x="235.29411764705884" y="282.3529411764706"></rect><rect width="47.05882352941177" height="47.05882352941177" x="282.3529411764706" y="282.3529411764706"></rect><rect width="47.05882352941177" height="47.05882352941177" x="329.4117647058824" y="282.3529411764706"></rect><rect width="47.05882352941177" height="47.05882352941177" x="376.47058823529414" y="282.3529411764706"></rect><rect width="47.05882352941177" height="47.05882352941177" x="423.5294117647059" y="282.3529411764706"></rect><rect width="47.05882352941177" height="47.05882352941177" x="470.5882352941177" y="282.3529411764706"></rect><rect width="47.05882352941177" height="47.05882352941177" x="517.6470588235295" y="282.3529411764706"></rect><rect width="47.05882352941177" height="47.05882352941177" x="564.7058823529412" y="282.3529411764706"></rect><rect width="47.05882352941177" height="47.05882352941177" x="611.7647058823529" y="282.3529411764706"></rect><rect width="47.05882352941177" height="47.05882352941177" x="658.8235294117646" y="282.3529411764706"></rect><rect width="47.05882352941177" height="47.05882352941177" x="705.8823529411764" y="282.3529411764706"></rect><rect width="47.05882352941177" height="47.05882352941177" x="752.9411764705881" y="282.3529411764706"></rect><rect width="47.05882352941177" height="47.05882352941177" x="799.9999999999998" y="282.3529411764706"></rect><rect width="47.05882352941177" height="47.05882352941177" x="0" y="329.4117647058824"></rect><rect width="47.05882352941177" height="47.05882352941177" x="47.05882352941177" y="329.4117647058824"></rect><rect width="47.05882352941177" height="47.05882352941177" x="94.11764705882354" y="329.4117647058824"></rect><rect width="47.05882352941177" height="47.05882352941177" x="141.1764705882353" y="329.4117647058824"></rect><rect width="47.05882352941177" height="47.05882352941177" x="188.23529411764707" y="329.4117647058824"></rect><rect width="47.05882352941177" height="47.05882352941177" x="235.29411764705884" y="329.4117647058824"></rect><rect width="47.05882352941177" height="47.05882352941177" x="282.3529411764706" y="329.4117647058824"></rect><rect width="47.05882352941177" height="47.05882352941177" x="329.4117647058824" y="329.4117647058824"></rect><rect width="47.05882352941177" height="47.05882352941177" x="376.47058823529414" y="329.4117647058824"></rect><rect width="47.05882352941177" height="47.05882352941177" x="423.5294117647059" y="329.4117647058824"></rect><rect width="47.05882352941177" height="47.05882352941177" x="470.5882352941177" y="329.4117647058824"></rect><rect width="47.05882352941177" height="47.05882352941177" x="517.6470588235295" y="329.4117647058824"></rect><rect width="47.05882352941177" height="47.05882352941177" x="564.7058823529412" y="329.4117647058824"></rect><rect width="47.05882352941177" height="47.05882352941177" x="611.7647058823529" y="329.4117647058824"></rect><rect width="47.05882352941177" height="47.05882352941177" x="658.8235294117646" y="329.4117647058824"></rect><rect width="47.05882352941177" height="47.05882352941177" x="705.8823529411764" y="329.4117647058824"></rect><rect width="47.05882352941177" height="47.05882352941177" x="752.9411764705881" y="329.4117647058824"></rect><rect width="47.05882352941177" height="47.05882352941177" x="799.9999999999998" y="329.4117647058824"></rect><rect width="47.05882352941177" height="47.05882352941177" x="0" y="376.47058823529414"></rect><rect width="47.05882352941177" height="47.05882352941177" x="47.05882352941177" y="376.47058823529414"></rect><rect width="47.05882352941177" height="47.05882352941177" x="94.11764705882354" y="376.47058823529414"></rect><rect width="47.05882352941177" height="47.05882352941177" x="141.1764705882353" y="376.47058823529414"></rect><rect width="47.05882352941177" height="47.05882352941177" x="188.23529411764707" y="376.47058823529414"></rect><rect width="47.05882352941177" height="47.05882352941177" x="235.29411764705884" y="376.47058823529414"></rect><rect width="47.05882352941177" height="47.05882352941177" x="282.3529411764706" y="376.47058823529414"></rect><rect width="47.05882352941177" height="47.05882352941177" x="329.4117647058824" y="376.47058823529414"></rect><rect width="47.05882352941177" height="47.05882352941177" x="376.47058823529414" y="376.47058823529414"></rect><rect width="47.05882352941177" height="47.05882352941177" x="423.5294117647059" y="376.47058823529414"></rect><rect width="47.05882352941177" height="47.05882352941177" x="470.5882352941177" y="376.47058823529414"></rect><rect width="47.05882352941177" height="47.05882352941177" x="517.6470588235295" y="376.47058823529414"></rect><rect width="47.05882352941177" height="47.05882352941177" x="564.7058823529412" y="376.47058823529414"></rect><rect width="47.05882352941177" height="47.05882352941177" x="611.7647058823529" y="376.47058823529414"></rect><rect width="47.05882352941177" height="47.05882352941177" x="658.8235294117646" y="376.47058823529414"></rect><rect width="47.05882352941177" height="47.05882352941177" x="705.8823529411764" y="376.47058823529414"></rect><rect width="47.05882352941177" height="47.05882352941177" x="752.9411764705881" y="376.47058823529414"></rect><rect width="47.05882352941177" height="47.05882352941177" x="799.9999999999998" y="376.47058823529414"></rect><rect width="47.05882352941177" height="47.05882352941177" x="0" y="423.5294117647059"></rect><rect width="47.05882352941177" height="47.05882352941177" x="47.05882352941177" y="423.5294117647059"></rect><rect width="47.05882352941177" height="47.05882352941177" x="94.11764705882354" y="423.5294117647059"></rect><rect width="47.05882352941177" height="47.05882352941177" x="141.1764705882353" y="423.5294117647059"></rect><rect width="47.05882352941177" height="47.05882352941177" x="188.23529411764707" y="423.5294117647059"></rect><rect width="47.05882352941177" height="47.05882352941177" x="235.29411764705884" y="423.5294117647059"></rect><rect width="47.05882352941177" height="47.05882352941177" x="282.3529411764706" y="423.5294117647059"></rect><rect width="47.05882352941177" height="47.05882352941177" x="329.4117647058824" y="423.5294117647059"></rect><rect width="47.05882352941177" height="47.05882352941177" x="376.47058823529414" y="423.5294117647059"></rect><rect width="47.05882352941177" height="47.05882352941177" x="423.5294117647059" y="423.5294117647059"></rect><rect width="47.05882352941177" height="47.05882352941177" x="470.5882352941177" y="423.5294117647059"></rect><rect width="47.05882352941177" height="47.05882352941177" x="517.6470588235295" y="423.5294117647059"></rect><rect width="47.05882352941177" height="47.05882352941177" x="564.7058823529412" y="423.5294117647059"></rect><rect width="47.05882352941177" height="47.05882352941177" x="611.7647058823529" y="423.5294117647059"></rect><rect width="47.05882352941177" height="47.05882352941177" x="658.8235294117646" y="423.5294117647059"></rect><rect width="47.05882352941177" height="47.05882352941177" x="705.8823529411764" y="423.5294117647059"></rect><rect width="47.05882352941177" height="47.05882352941177" x="752.9411764705881" y="423.5294117647059"></rect><rect width="47.05882352941177" height="47.05882352941177" x="799.9999999999998" y="423.5294117647059"></rect><rect width="47.05882352941177" height="47.05882352941177" x="0" y="470.5882352941177"></rect><rect width="47.05882352941177" height="47.05882352941177" x="47.05882352941177" y="470.5882352941177"></rect><rect width="47.05882352941177" height="47.05882352941177" x="94.11764705882354" y="470.5882352941177"></rect><rect width="47.05882352941177" height="47.05882352941177" x="141.1764705882353" y="470.5882352941177"></rect><rect width="47.05882352941177" height="47.05882352941177" x="188.23529411764707" y="470.5882352941177"></rect><rect width="47.05882352941177" height="47.05882352941177" x="235.29411764705884" y="470.5882352941177"></rect><rect width="47.05882352941177" height="47.05882352941177" x="282.3529411764706" y="470.5882352941177"></rect><rect width="47.05882352941177" height="47.05882352941177" x="329.4117647058824" y="470.5882352941177"></rect><rect width="47.05882352941177" height="47.05882352941177" x="376.47058823529414" y="470.5882352941177"></rect><rect width="47.05882352941177" height="47.05882352941177" x="423.5294117647059" y="470.5882352941177"></rect><rect width="47.05882352941177" height="47.05882352941177" x="470.5882352941177" y="470.5882352941177"></rect><rect width="47.05882352941177" height="47.05882352941177" x="517.6470588235295" y="470.5882352941177"></rect><rect width="47.05882352941177" height="47.05882352941177" x="564.7058823529412" y="470.5882352941177"></rect><rect width="47.05882352941177" height="47.05882352941177" x="611.7647058823529" y="470.5882352941177"></rect><rect width="47.05882352941177" height="47.05882352941177" x="658.8235294117646" y="470.5882352941177"></rect><rect width="47.05882352941177" height="47.05882352941177" x="705.8823529411764" y="470.5882352941177"></rect><rect width="47.05882352941177" height="47.05882352941177" x="752.9411764705881" y="470.5882352941177"></rect><rect width="47.05882352941177" height="47.05882352941177" x="799.9999999999998" y="470.5882352941177"></rect><rect width="47.05882352941177" height="47.05882352941177" x="0" y="517.6470588235295"></rect><rect width="47.05882352941177" height="47.05882352941177" x="47.05882352941177" y="517.6470588235295"></rect><rect width="47.05882352941177" height="47.05882352941177" x="94.11764705882354" y="517.6470588235295"></rect><rect width="47.05882352941177" height="47.05882352941177" x="141.1764705882353" y="517.6470588235295"></rect><rect width="47.05882352941177" height="47.05882352941177" x="188.23529411764707" y="517.6470588235295"></rect><rect width="47.05882352941177" height="47.05882352941177" x="235.29411764705884" y="517.6470588235295"></rect><rect width="47.05882352941177" height="47.05882352941177" x="282.3529411764706" y="517.6470588235295"></rect><rect width="47.05882352941177" height="47.05882352941177" x="329.4117647058824" y="517.6470588235295"></rect><rect width="47.05882352941177" height="47.05882352941177" x="376.47058823529414" y="517.6470588235295"></rect><rect width="47.05882352941177" height="47.05882352941177" x="423.5294117647059" y="517.6470588235295"></rect><rect width="47.05882352941177" height="47.05882352941177" x="470.5882352941177" y="517.6470588235295"></rect><rect width="47.05882352941177" height="47.05882352941177" x="517.6470588235295" y="517.6470588235295"></rect><rect width="47.05882352941177" height="47.05882352941177" x="564.7058823529412" y="517.6470588235295"></rect><rect width="47.05882352941177" height="47.05882352941177" x="611.7647058823529" y="517.6470588235295"></rect><rect width="47.05882352941177" height="47.05882352941177" x="658.8235294117646" y="517.6470588235295"></rect><rect width="47.05882352941177" height="47.05882352941177" x="705.8823529411764" y="517.6470588235295"></rect><rect width="47.05882352941177" height="47.05882352941177" x="752.9411764705881" y="517.6470588235295"></rect><rect width="47.05882352941177" height="47.05882352941177" x="799.9999999999998" y="517.6470588235295"></rect><rect width="47.05882352941177" height="47.05882352941177" x="0" y="564.7058823529412"></rect><rect width="47.05882352941177" height="47.05882352941177" x="47.05882352941177" y="564.7058823529412"></rect><rect width="47.05882352941177" height="47.05882352941177" x="94.11764705882354" y="564.7058823529412"></rect><rect width="47.05882352941177" height="47.05882352941177" x="141.1764705882353" y="564.7058823529412"></rect><rect width="47.05882352941177" height="47.05882352941177" x="188.23529411764707" y="564.7058823529412"></rect><rect width="47.05882352941177" height="47.05882352941177" x="235.29411764705884" y="564.7058823529412"></rect><rect width="47.05882352941177" height="47.05882352941177" x="282.3529411764706" y="564.7058823529412"></rect><rect width="47.05882352941177" height="47.05882352941177" x="329.4117647058824" y="564.7058823529412"></rect><rect width="47.05882352941177" height="47.05882352941177" x="376.47058823529414" y="564.7058823529412"></rect><rect width="47.05882352941177" height="47.05882352941177" x="423.5294117647059" y="564.7058823529412"></rect><rect width="47.05882352941177" height="47.05882352941177" x="470.5882352941177" y="564.7058823529412"></rect><rect width="47.05882352941177" height="47.05882352941177" x="517.6470588235295" y="564.7058823529412"></rect><rect width="47.05882352941177" height="47.05882352941177" x="564.7058823529412" y="564.7058823529412"></rect><rect width="47.05882352941177" height="47.05882352941177" x="611.7647058823529" y="564.7058823529412"></rect><rect width="47.05882352941177" height="47.05882352941177" x="658.8235294117646" y="564.7058823529412"></rect><rect width="47.05882352941177" height="47.05882352941177" x="705.8823529411764" y="564.7058823529412"></rect><rect width="47.05882352941177" height="47.05882352941177" x="752.9411764705881" y="564.7058823529412"></rect><rect width="47.05882352941177" height="47.05882352941177" x="799.9999999999998" y="564.7058823529412"></rect><rect width="47.05882352941177" height="47.05882352941177" x="0" y="611.7647058823529"></rect><rect width="47.05882352941177" height="47.05882352941177" x="47.05882352941177" y="611.7647058823529"></rect><rect width="47.05882352941177" height="47.05882352941177" x="94.11764705882354" y="611.7647058823529"></rect><rect width="47.05882352941177" height="47.05882352941177" x="141.1764705882353" y="611.7647058823529"></rect><rect width="47.05882352941177" height="47.05882352941177" x="188.23529411764707" y="611.7647058823529"></rect><rect width="47.05882352941177" height="47.05882352941177" x="235.29411764705884" y="611.7647058823529"></rect><rect width="47.05882352941177" height="47.05882352941177" x="282.3529411764706" y="611.7647058823529"></rect><rect width="47.05882352941177" height="47.05882352941177" x="329.4117647058824" y="611.7647058823529"></rect><rect width="47.05882352941177" height="47.05882352941177" x="376.47058823529414" y="611.7647058823529"></rect><rect width="47.05882352941177" height="47.05882352941177" x="423.5294117647059" y="611.7647058823529"></rect><rect width="47.05882352941177" height="47.05882352941177" x="470.5882352941177" y="611.7647058823529"></rect><rect width="47.05882352941177" height="47.05882352941177" x="517.6470588235295" y="611.7647058823529"></rect><rect width="47.05882352941177" height="47.05882352941177" x="564.7058823529412" y="611.7647058823529"></rect><rect width="47.05882352941177" height="47.05882352941177" x="611.7647058823529" y="611.7647058823529"></rect><rect width="47.05882352941177" height="47.05882352941177" x="658.8235294117646" y="611.7647058823529"></rect><rect width="47.05882352941177" height="47.05882352941177" x="705.8823529411764" y="611.7647058823529"></rect><rect width="47.05882352941177" height="47.05882352941177" x="752.9411764705881" y="611.7647058823529"></rect><rect width="47.05882352941177" height="47.05882352941177" x="799.9999999999998" y="611.7647058823529"></rect><rect width="47.05882352941177" height="47.05882352941177" x="0" y="658.8235294117646"></rect><rect width="47.05882352941177" height="47.05882352941177" x="47.05882352941177" y="658.8235294117646"></rect><rect width="47.05882352941177" height="47.05882352941177" x="94.11764705882354" y="658.8235294117646"></rect><rect width="47.05882352941177" height="47.05882352941177" x="141.1764705882353" y="658.8235294117646"></rect><rect width="47.05882352941177" height="47.05882352941177" x="188.23529411764707" y="658.8235294117646"></rect><rect width="47.05882352941177" height="47.05882352941177" x="235.29411764705884" y="658.8235294117646"></rect><rect width="47.05882352941177" height="47.05882352941177" x="282.3529411764706" y="658.8235294117646"></rect><rect width="47.05882352941177" height="47.05882352941177" x="329.4117647058824" y="658.8235294117646"></rect><rect width="47.05882352941177" height="47.05882352941177" x="376.47058823529414" y="658.8235294117646"></rect><rect width="47.05882352941177" height="47.05882352941177" x="423.5294117647059" y="658.8235294117646"></rect><rect width="47.05882352941177" height="47.05882352941177" x="470.5882352941177" y="658.8235294117646"></rect><rect width="47.05882352941177" height="47.05882352941177" x="517.6470588235295" y="658.8235294117646"></rect><rect width="47.05882352941177" height="47.05882352941177" x="564.7058823529412" y="658.8235294117646"></rect><rect width="47.05882352941177" height="47.05882352941177" x="611.7647058823529" y="658.8235294117646"></rect><rect width="47.05882352941177" height="47.05882352941177" x="658.8235294117646" y="658.8235294117646"></rect><rect width="47.05882352941177" height="47.05882352941177" x="705.8823529411764" y="658.8235294117646"></rect><rect width="47.05882352941177" height="47.05882352941177" x="752.9411764705881" y="658.8235294117646"></rect><rect width="47.05882352941177" height="47.05882352941177" x="799.9999999999998" y="658.8235294117646"></rect><rect width="47.05882352941177" height="47.05882352941177" x="0" y="705.8823529411764"></rect><rect width="47.05882352941177" height="47.05882352941177" x="47.05882352941177" y="705.8823529411764"></rect><rect width="47.05882352941177" height="47.05882352941177" x="94.11764705882354" y="705.8823529411764"></rect><rect width="47.05882352941177" height="47.05882352941177" x="141.1764705882353" y="705.8823529411764"></rect><rect width="47.05882352941177" height="47.05882352941177" x="188.23529411764707" y="705.8823529411764"></rect><rect width="47.05882352941177" height="47.05882352941177" x="235.29411764705884" y="705.8823529411764"></rect><rect width="47.05882352941177" height="47.05882352941177" x="282.3529411764706" y="705.8823529411764"></rect><rect width="47.05882352941177" height="47.05882352941177" x="329.4117647058824" y="705.8823529411764"></rect><rect width="47.05882352941177" height="47.05882352941177" x="376.47058823529414" y="705.8823529411764"></rect><rect width="47.05882352941177" height="47.05882352941177" x="423.5294117647059" y="705.8823529411764"></rect><rect width="47.05882352941177" height="47.05882352941177" x="470.5882352941177" y="705.8823529411764"></rect><rect width="47.05882352941177" height="47.05882352941177" x="517.6470588235295" y="705.8823529411764"></rect><rect width="47.05882352941177" height="47.05882352941177" x="564.7058823529412" y="705.8823529411764"></rect><rect width="47.05882352941177" height="47.05882352941177" x="611.7647058823529" y="705.8823529411764"></rect><rect width="47.05882352941177" height="47.05882352941177" x="658.8235294117646" y="705.8823529411764"></rect><rect width="47.05882352941177" height="47.05882352941177" x="705.8823529411764" y="705.8823529411764"></rect><rect width="47.05882352941177" height="47.05882352941177" x="752.9411764705881" y="705.8823529411764"></rect><rect width="47.05882352941177" height="47.05882352941177" x="799.9999999999998" y="705.8823529411764"></rect><rect width="47.05882352941177" height="47.05882352941177" x="0" y="752.9411764705881"></rect><rect width="47.05882352941177" height="47.05882352941177" x="47.05882352941177" y="752.9411764705881"></rect><rect width="47.05882352941177" height="47.05882352941177" x="94.11764705882354" y="752.9411764705881"></rect><rect width="47.05882352941177" height="47.05882352941177" x="141.1764705882353" y="752.9411764705881"></rect><rect width="47.05882352941177" height="47.05882352941177" x="188.23529411764707" y="752.9411764705881"></rect><rect width="47.05882352941177" height="47.05882352941177" x="235.29411764705884" y="752.9411764705881"></rect><rect width="47.05882352941177" height="47.05882352941177" x="282.3529411764706" y="752.9411764705881"></rect><rect width="47.05882352941177" height="47.05882352941177" x="329.4117647058824" y="752.9411764705881"></rect><rect width="47.05882352941177" height="47.05882352941177" x="376.47058823529414" y="752.9411764705881"></rect><rect width="47.05882352941177" height="47.05882352941177" x="423.5294117647059" y="752.9411764705881"></rect><rect width="47.05882352941177" height="47.05882352941177" x="470.5882352941177" y="752.9411764705881"></rect><rect width="47.05882352941177" height="47.05882352941177" x="517.6470588235295" y="752.9411764705881"></rect><rect width="47.05882352941177" height="47.05882352941177" x="564.7058823529412" y="752.9411764705881"></rect><rect width="47.05882352941177" height="47.05882352941177" x="611.7647058823529" y="752.9411764705881"></rect><rect width="47.05882352941177" height="47.05882352941177" x="658.8235294117646" y="752.9411764705881"></rect><rect width="47.05882352941177" height="47.05882352941177" x="705.8823529411764" y="752.9411764705881"></rect><rect width="47.05882352941177" height="47.05882352941177" x="752.9411764705881" y="752.9411764705881"></rect><rect width="47.05882352941177" height="47.05882352941177" x="799.9999999999998" y="752.9411764705881"></rect><rect width="47.05882352941177" height="47.05882352941177" x="0" y="799.9999999999998"></rect><rect width="47.05882352941177" height="47.05882352941177" x="47.05882352941177" y="799.9999999999998"></rect><rect width="47.05882352941177" height="47.05882352941177" x="94.11764705882354" y="799.9999999999998"></rect><rect width="47.05882352941177" height="47.05882352941177" x="141.1764705882353" y="799.9999999999998"></rect><rect width="47.05882352941177" height="47.05882352941177" x="188.23529411764707" y="799.9999999999998"></rect><rect width="47.05882352941177" height="47.05882352941177" x="235.29411764705884" y="799.9999999999998"></rect><rect width="47.05882352941177" height="47.05882352941177" x="282.3529411764706" y="799.9999999999998"></rect><rect width="47.05882352941177" height="47.05882352941177" x="329.4117647058824" y="799.9999999999998"></rect><rect width="47.05882352941177" height="47.05882352941177" x="376.47058823529414" y="799.9999999999998"></rect><rect width="47.05882352941177" height="47.05882352941177" x="423.5294117647059" y="799.9999999999998"></rect><rect width="47.05882352941177" height="47.05882352941177" x="470.5882352941177" y="799.9999999999998"></rect><rect width="47.05882352941177" height="47.05882352941177" x="517.6470588235295" y="799.9999999999998"></rect><rect width="47.05882352941177" height="47.05882352941177" x="564.7058823529412" y="799.9999999999998"></rect><rect width="47.05882352941177" height="47.05882352941177" x="611.7647058823529" y="799.9999999999998"></rect><rect width="47.05882352941177" height="47.05882352941177" x="658.8235294117646" y="799.9999999999998"></rect><rect width="47.05882352941177" height="47.05882352941177" x="705.8823529411764" y="799.9999999999998"></rect><rect width="47.05882352941177" height="47.05882352941177" x="752.9411764705881" y="799.9999999999998"></rect><rect width="47.05882352941177" height="47.05882352941177" x="799.9999999999998" y="799.9999999999998"></rect></g></svg>